<?xml version="1.0" encoding="iso-8859-1"?>
<!DOCTYPE svg PUBLIC "-//W3C//DTD SVG 1.1//EN" "http://www.w3.org/Graphics/SVG/1.1/DTD/svg11.dtd">
<svg 
 version="1.1" xmlns="http://www.w3.org/2000/svg" xmlns:xlink="http://www.w3.org/1999/xlink" x="0px" y="0px" width="512px"
	 height="512px" viewBox="0 0 512 512" style="enable-background:new 0 0 512 512;" xml:space="preserve"
><g id="afcae5a789ccd549f9c6e2a2f8173411"><g></g><path style="display: inline;" d="M468.917,106.958H43.083c-23.421,0-42.583,19.162-42.583,42.583v212.917
		c0,23.421,19.163,42.584,42.583,42.584h425.833c23.421,0,42.583-19.163,42.583-42.584V149.541
		C511.5,126.12,492.338,106.958,468.917,106.958z M490.208,362.458c0,11.74-9.552,21.292-21.291,21.292H43.083
		c-11.74,0-21.292-9.552-21.292-21.292V149.541c0-11.739,9.552-21.291,21.292-21.291h425.833c11.739,0,21.291,9.552,21.291,21.291
		V362.458z M43.083,362.458h425.833V149.541H43.083V362.458z M269.623,188.183c0-2.694,1.348-5.032,4.047-7.02
		c2.694-1.988,6.176-2.986,10.434-2.986h37.685c15.894,0,28.603,4.051,38.112,12.135c9.511,8.093,14.269,20.802,14.269,38.117
		v55.143c0,17.324-4.758,30.024-14.269,38.117c-9.51,8.084-22.219,12.134-38.112,12.134h-37.685c-4.258,0-7.739-0.989-10.434-2.985
		c-2.699-1.979-4.047-4.325-4.047-7.02V188.183z M137.831,188.183c0-3.26,1.63-5.747,4.899-7.452
		c3.26-1.696,7.165-2.554,11.71-2.554c4.541,0,8.442,0.857,11.71,2.554c3.26,1.705,4.899,4.192,4.899,7.452v52.165h42.367v-52.165
		c0-3.26,1.63-5.747,4.899-7.452c3.26-1.696,7.165-2.554,11.71-2.554c4.541,0,8.442,0.857,11.71,2.554
		c3.26,1.705,4.898,4.192,4.898,7.452v135.418c0,3.269-1.638,5.789-4.898,7.561c-3.269,1.771-7.169,2.661-11.71,2.661
		c-4.545,0-8.45-0.89-11.71-2.661c-3.269-1.771-4.899-4.292-4.899-7.561v-57.703H171.05v57.703c0,3.269-1.639,5.789-4.899,7.561
		c-3.269,1.771-7.169,2.661-11.71,2.661c-4.545,0-8.45-0.89-11.71-2.661c-3.269-1.771-4.899-4.292-4.899-7.561V188.183z
		 M321.788,304.862h-18.946v-97.725h18.946c12.774,0,19.162,7.094,19.162,21.291v55.143
		C340.95,297.769,334.563,304.862,321.788,304.862z"></path></g></svg>